# xmcd CD database file
#
# Track frame offsets:
#	150
#	16102
#	34690
#	53895
#	73180
#	92792
#	114840
#	131377
#	151170
#	171077
#	186925
#	204602
#	223015
#	242245
#	266255
#	280225
#	302927
#
# Disc length: 4270 seconds
#
# Revision: 2
# Processed by: cddbd v1.5.1PL0 Copyright (c) Steve Scherf et al.
# Submitted via: CdAid (MTCDDB.DLL V2003.12.21)
#
DISCID=ed10ac11
DTITLE=Pino Daniele - The Platinum Collection cd3
DYEAR=2004
DGENRE=Blues
TTITLE0=Quando
TTITLE1='O scaraffone
TTITLE2=Gente distratta
TTITLE3=Che Dio ti benedica
TTITLE4=Jesce juorno
TTITLE5=Anna verrà
TTITLE6=Carte e cartuscelle
TTITLE7=Un uomo in blues
TTITLE8='O cammello 'nnamurato
TTITLE9=Io per lei
TTITLE10=Femmena
TTITLE11=Che male c'è
TTITLE12=Sicily
TTITLE13=Stress
TTITLE14=Se mi vuoi
TTITLE15=Senza peccato
TTITLE16=O ssaje comme fa 'o core
EXTD=ID3G:   0 YEAR: 2004
EXTT0=
EXTT1=
EXTT2=
EXTT3=
EXTT4=
EXTT5=
EXTT6=
EXTT7=
EXTT8=
EXTT9=
EXTT10=
EXTT11=
EXTT12=
EXTT13=
EXTT14=
EXTT15=
EXTT16=
PLAYORDER=
